# xmcd CD database file
#
# Track frame offsets:
#	150
#	17475
#	30577
#	45072
#	58775
#	72620
#	86212
#	102972
#	115875
#	129865
#	145797
#	160537
#
# Disc length: 2320 seconds
#
# Revision: 2
# Processed by: cddbd v1.5.2PL0 Copyright (c) Steve Scherf et al.
# Submitted via: CDex 1.40Beta8
#
DISCID=93090e0c
DTITLE=Linda Feller - Jetzt lieb' ich dich erst rech
DYEAR=1993
DGENRE=Schlager
TTITLE0=Jetzt lieb' ich dich erst recht
TTITLE1=Soviel Zeit muß sein
TTITLE2=Supermarkt der Träume
TTITLE3=Halb so schön
TTITLE4=Minuten im Fieber
TTITLE5=Du, immer nur du
TTITLE6=Wenn du traurig bist
TTITLE7=2x ist 1x zuviel
TTITLE8=Sternenflieger
TTITLE9=Ich geb' nicht auf
TTITLE10=Nur bei dir
TTITLE11=Wenn Worte zerstören
EXTD=YEAR: 1993
EXTT0=
EXTT1=
EXTT2=
EXTT3=
EXTT4=
EXTT5=
EXTT6=
EXTT7=
EXTT8=
EXTT9=
EXTT10=
EXTT11=
PLAYORDER=
